<svg xmlns="http://www.w3.org/2000/svg" xmlns:xlink="http://www.w3.org/1999/xlink" width="450" height="450">
    <circle cx="225" cy="225" r="225" fill="#497EFA" fill-rule="nonzero" />

    <mask id="mask" fill="#fff">
        <circle cx="225" cy="225" r="225" />
    </mask>

    <path fill="#356CEE" fill-rule="nonzero"
        d="M317.177 262c6.628 0 12 5.373 12 12s-5.372 12-12 12h-73c-6.627 0-12-5.373-12-12s5.373-12 12-12h73zm-287 0c6.628 0 12 5.373 12 12s-5.372 12-12 12h-73c-6.627 0-12-5.373-12-12s5.373-12 12-12h73zm539 0c6.628 0 12 5.373 12 12s-5.372 12-12 12h-166c-6.627 0-12-5.373-12-12s5.373-12 12-12h166zm-334-96c6.628 0 12 5.373 12 12s-5.372 12-12 12h-78v.01c-6.395.262-11.5 5.53-11.5 11.99s5.105 11.728 11.5 11.99v.01h160c6.628 0 12 5.373 12 12s-5.372 12-12 12h-257c-6.627 0-12-5.373-12-12s5.373-12 12-12h49c6.628 0 12-5.373 12-12s-5.372-12-12-12h-30c-6.627 0-12-5.373-12-12s5.373-12 12-12h156zm168 36c0-6.627-5.372-12-12-12h-84c-6.627 0-12-5.373-12-12s5.373-12 12-12h156c6.628 0 12 5.373 12 12s-5.372 12-12 12h-24v.01c-6.395.262-11.5 5.53-11.5 11.99s5.105 11.728 11.5 11.99v.01h200c6.628 0 12 5.373 12 12s-5.372 12-12 12h-257c-6.627 0-12-5.373-12-12s5.373-12 12-12h9c6.628 0 12-5.373 12-12zm-388-36c6.628 0 12 5.373 12 12s-5.372 12-12 12h-156c-6.627 0-12-5.373-12-12s5.373-12 12-12h156zm662 0c6.628 0 12 5.373 12 12s-5.372 12-12 12h-156c-6.627 0-12-5.373-12-12s5.373-12 12-12h156z"
        mask="url(#mask)" />

    <path fill="#356CEE" fill-rule="nonzero"
        d="M317.177 118c6.628 0 12 5.373 12 12s-5.372 12-12 12h-73c-6.627 0-12-5.373-12-12s5.373-12 12-12h73zm-287 0c6.628 0 12 5.373 12 12s-5.372 12-12 12h-73c-6.627 0-12-5.373-12-12s5.373-12 12-12h73zm539 0c6.628 0 12 5.373 12 12s-5.372 12-12 12h-166c-6.627 0-12-5.373-12-12s5.373-12 12-12h166zm-334-96c6.628 0 12 5.373 12 12s-5.372 12-12 12h-78v.01c-6.395.262-11.5 5.53-11.5 11.99s5.105 11.728 11.5 11.99V70h160c6.628 0 12 5.373 12 12s-5.372 12-12 12h-257c-6.627 0-12-5.373-12-12s5.373-12 12-12h49c6.628 0 12-5.373 12-12s-5.372-12-12-12h-30c-6.627 0-12-5.373-12-12s5.373-12 12-12h156zm168 36c0-6.627-5.372-12-12-12h-84c-6.627 0-12-5.373-12-12s5.373-12 12-12h156c6.628 0 12 5.373 12 12s-5.372 12-12 12h-24v.01c-6.395.262-11.5 5.53-11.5 11.99s5.105 11.728 11.5 11.99V70h200c6.628 0 12 5.373 12 12s-5.372 12-12 12h-257c-6.627 0-12-5.373-12-12s5.373-12 12-12h9c6.628 0 12-5.373 12-12zm-388-36c6.628 0 12 5.373 12 12s-5.372 12-12 12h-156c-6.627 0-12-5.373-12-12s5.373-12 12-12h156zm662 0c6.628 0 12 5.373 12 12s-5.372 12-12 12h-156c-6.627 0-12-5.373-12-12s5.373-12 12-12h156z"
        mask="url(#mask)" opacity=".4" />

    <path fill="#356CEE" fill-rule="nonzero"
        d="M317.177 430c6.628 0 12 5.373 12 12s-5.372 12-12 12h-73c-6.627 0-12-5.373-12-12s5.373-12 12-12h73zm-287 0c6.628 0 12 5.373 12 12s-5.372 12-12 12h-73c-6.627 0-12-5.373-12-12s5.373-12 12-12h73zm539 0c6.628 0 12 5.373 12 12s-5.372 12-12 12h-166c-6.627 0-12-5.373-12-12s5.373-12 12-12h166zm-334-96c6.628 0 12 5.373 12 12s-5.372 12-12 12h-78v.01c-6.395.262-11.5 5.53-11.5 11.99s5.105 11.728 11.5 11.99v.01h160c6.628 0 12 5.373 12 12s-5.372 12-12 12h-257c-6.627 0-12-5.373-12-12s5.373-12 12-12h49c6.628 0 12-5.373 12-12s-5.372-12-12-12h-30c-6.627 0-12-5.373-12-12s5.373-12 12-12h156zm168 36c0-6.627-5.372-12-12-12h-84c-6.627 0-12-5.373-12-12s5.373-12 12-12h156c6.628 0 12 5.373 12 12s-5.372 12-12 12h-24v.01c-6.395.262-11.5 5.53-11.5 11.99s5.105 11.728 11.5 11.99v.01h200c6.628 0 12 5.373 12 12s-5.372 12-12 12h-257c-6.627 0-12-5.373-12-12s5.373-12 12-12h9c6.628 0 12-5.373 12-12zm-388-36c6.628 0 12 5.373 12 12s-5.372 12-12 12h-156c-6.627 0-12-5.373-12-12s5.373-12 12-12h156zm662 0c6.628 0 12 5.373 12 12s-5.372 12-12 12h-156c-6.627 0-12-5.373-12-12s5.373-12 12-12h156z"
        mask="url(#mask)" opacity=".4" />

    <path fill="#2255CA" fill-rule="nonzero"
        d="M148.177 274c0-6.627-5.372-12-12-12h-19c-6.627 0-12-5.373-12-12s5.373-12 12-12h79c6.628 0 12 5.373 12 12s-5.372 12-12 12h-3v.01c-6.395.262-11.5 5.53-11.5 11.99s5.105 11.728 11.5 11.99v.01h3c6.628 0 12 5.373 12 12s-5.372 12-12 12h-61c-6.627 0-12-5.373-12-12s5.373-12 12-12h1c6.628 0 12-5.373 12-12z"
        mask="url(#mask)" />

    <rect x="50%" y="0" width="50%" height="100%" fill="#000" opacity=".078" mask="url(#mask)" />
</svg>