<svg width="668" height="668" fill="none" xmlns="http://www.w3.org/2000/svg">
    <mask id="mask">
        <rect x="0" y="0" width="100%" height="100%" fill="#fff" />
        <circle cx="334" cy="318" r="208" fill="#000" />
    </mask>

    <path fill-rule="evenodd" clip-rule="evenodd"
        d="M53.285 53.283c.113-.12.228-.24.345-.357
    28.705-28.705 177.658 73.709 332.696 228.747 155.038 155.038 257.452 303.991 228.747
    332.696-.117.117-.236.232-.357.345l-45.524-45.524c.122-.112.242-.227.359-.344
    24.049-24.049-61.757-148.848-191.653-278.745C248.001 160.205 123.202 74.399 99.153 98.448a11.74
    11.74 0 00-.344.359L53.285 53.283zm56.563 56.563c22.886-22.886 141.637 58.759 265.238 182.36
    123.601 123.601 205.246 242.352 182.36 265.238l-17.143-17.143c.123-.111.242-.226.36-.343
    21.14-21.14-54.091-130.647-168.033-244.589-113.942-113.942-223.449-189.173-244.589-168.033-.117.118-.232.238-.343.36l-17.85-17.85z"
        fill="#B87D43" mask="url(#mask)" />

    <path fill-rule="evenodd" clip-rule="evenodd"
        d="M53.284 53.285c-.12.112-.24.227-.357.345-28.705 28.704 73.709 177.657 228.747 332.695C436.712
    541.363 585.665 643.777 614.37
    615.072c.117-.117.232-.236.344-.357l-45.523-45.524c-.112.122-.227.242-.344.359-24.05
    24.05-148.848-61.756-278.745-191.653S74.399 123.202 98.449
    99.152c.117-.117.237-.232.359-.344L53.284 53.285zm56.562 56.562c-22.886 22.886 58.76 141.637
    182.361 265.238s242.352 205.247 265.238 182.36l-17.143-17.143c-.112.123-.226.243-.343.36-21.14
    21.14-130.647-54.091-244.589-168.033C181.428 258.687 106.197 149.18 127.337
    128.04c.117-.117.237-.231.36-.343l-17.851-17.85z"
        fill="#B87D43" />
</svg>