<svg xmlns="http://www.w3.org/2000/svg" xmlns:xlink="http://www.w3.org/1999/xlink" width="290" height="290">
	<defs>
		<circle id="a" cx="145" cy="145" r="145" />
		<circle id="c" cx="145" cy="145" r="145" />
	</defs>
	<g fill="none" fill-rule="evenodd">
		<circle cx="145" cy="145" r="145" fill="hsl(274, 74%, 82%)" />
		<mask id="b" fill="#fff">
			<use xlink:href="#a" />
		</mask>
		<path fill="rgb(165,50,237)" fill-rule="nonzero" d="M154 253c6.627 0 12 5.373 12 12s-5.373 12-12 12h-20c-6.627
                0-12-5.373-12-12s5.373-12 12-12h20zm86-48c6.627 0 12 5.373
                12 12s-5.373 12-12 12h-62c-6.627 0-12-5.373-12-12s5.373-12
                12-12h62zm-110 0c6.627 0 12 5.373 12 12s-5.373 12-12
                12-12-5.373-12-12 5.373-12 12-12zm-45-60c0-6.627-5.373-12-12-12H2c-6.627
                0-12-5.373-12-12s5.373-12 12-12h49c6.627 0 12-5.373
                12-12s-5.373-12-12-12h-5c-6.627 0-12-5.373-12-12s5.373-12
                12-12h73c6.627 0 12 5.373 12 12s-5.373 12-12 12H99v.01c-6.395.262-11.5
                5.53-11.5 11.99s5.105 11.728 11.5 11.99v.01h45c6.627 0 12
                5.373 12 12s-5.373 12-12 12h-2l-.001.01c-6.395.263-11.499
                5.53-11.499 11.99s5.104 11.727 11.499 11.99l.001.01h52c6.627 0
                12 5.373 12 12s-5.373 12-12 12H70c-6.627 0-12-5.373-12-12s5.373-12
                12-12h3c6.627 0 12-5.373 12-12zm160 12c6.627 0 12 5.373 12 12s-5.373
                12-12 12-12-5.373-12-12 5.373-12 12-12zm-223 0c6.627 0 12 5.373 12
                12s-5.373 12-12 12H2c-6.627 0-12-5.373-12-12s5.373-12 12-12h20zm199-96c6.627
                0 12 5.373 12 12s-5.373 12-12 12h-20c-6.627 0-12-5.373-12-12s5.373-12
                12-12h20zm24-48c6.627 0 12 5.373 12 12s-5.373 12-12 12h-58c-6.627
                0-12-5.373-12-12s5.373-12 12-12h58z" mask="url(#b)" />
		<mask id="d" fill="#fff">
			<use xlink:href="#c" />
		</mask>
		<path fill="hsl(277, 100%, 10%)" fill-rule="nonzero" mask="url(#d)" opacity=".178" d="M146 0h145v290H146z" />
		<path fill="black" d="M 104.009 97.01 C 104.009 79.364 118.356 65.016 136.002 65.016 L 151.998 65.016
            C 169.644 65.016 183.991 79.364 183.991 97.01 L 183.991 98.81 C 183.991 109.708 178.443 119.855 169.294
            125.704 L 148.199 139.251 C 135.602 147.35 128.004 161.297 128.004 176.244 L 128.004 176.994 C 128.004
            185.841 135.152 192.99 144 192.99 C 152.848 192.99 159.996 185.841 159.996 176.994 L 159.996 176.294 C
            159.996 172.194 162.096 168.395 165.496 166.195 L 186.591 152.648 C 204.888 140.851 215.984 120.605
            215.984 98.81 L 215.984 97.01 C 215.984 61.668 187.341 33.024 151.998 33.024 L 136.002 33.024 C 100.659
            33.024 72.015 61.668 72.015 97.01 C 72.015 105.858 79.163 113.006 88.012 113.006 C 96.86 113.006 104.009
            105.858 104.009 97.01 Z M 144 256.976 C 159.393 256.976 169.014 240.313 161.317 226.982 C 157.745 220.795
            151.144 216.984 144 216.984 C 128.607 216.984 118.986 233.648 126.683 246.978 C 130.255 253.165 136.856
            256.976 144 256.976 Z" />
	</g>
</svg>
