<?xml version="1.0" standalone="no"?>
<!DOCTYPE svg PUBLIC "-//W3C//DTD SVG 20010904//EN" "http://www.w3.org/TR/2001/REC-SVG-20010904/DTD/svg10.dtd">
<svg version="1.0" xmlns="http://www.w3.org/2000/svg" width="700.000000pt" height="700.000000pt" viewBox="0 0 700.000000 700.000000" preserveAspectRatio="xMidYMid meet">
	<metadata>
		Created by potrace 1.14, written by Peter Selinger 2001-2017
	</metadata>
	<g transform="translate(0.000000,700.000000) scale(0.100000,-0.100000)" fill="#000000" stroke="none">
		<path d="M4437 6676 c-102 -28 -185 -117 -207 -222 -27 -131 40 -262 164 -320
l51 -24 694 0 693 0 -88 75 c-190 160 -426 316 -663 437 l-135 68 -230 -1
c-156 0 -247 -5 -279 -13z" />
		<path d="M1040 5517 c-134 -37 -215 -143 -214 -282 0 -82 24 -141 82 -200 63
-64 108 -78 262 -85 112 -5 143 -10 181 -28 110 -54 175 -163 166 -282 -7
-106 -57 -185 -149 -235 l-53 -30 -602 -3 c-559 -2 -602 -4 -607 -20 -29 -95
-86 -439 -86 -519 l0 -43 913 -2 912 -3 41 -22 c67 -36 101 -70 133 -135 44
-86 44 -170 0 -256 -57 -114 -125 -152 -290 -162 -139 -8 -187 -27 -254 -102
-47 -53 -75 -122 -75 -189 0 -99 68 -207 164 -257 l51 -27 1575 0 1575 0 41
22 c67 36 101 70 133 135 72 143 21 305 -120 383 l-54 30 -700 5 c-690 5 -701
5 -747 27 -180 83 -223 326 -82 467 57 57 131 86 223 86 89 0 150 22 210 76
151 136 119 376 -63 472 l-51 27 -620 5 c-611 5 -621 5 -660 27 -54 29 -110
87 -137 142 -34 68 -32 178 4 246 31 59 76 104 138 136 44 23 53 24 360 29
l315 5 53 30 c90 49 141 128 150 231 9 120 -60 235 -170 285 l-53 24 -925 2
c-710 1 -936 -1 -970 -10z" />
		<path d="M4785 5521 c-83 -21 -154 -80 -196 -161 -32 -61 -33 -174 -3 -241 28
-60 84 -115 148 -145 50 -23 56 -24 352 -24 343 0 362 3 443 76 150 135 115
382 -67 471 l-57 28 -295 2 c-162 1 -308 -2 -325 -6z" />
		<path d="M20 3171 c0 -78 49 -382 81 -504 l10 -39 247 4 c246 3 247 3 298 30
217 115 214 412 -5 520 -44 22 -58 23 -338 26 l-293 3 0 -40z" />
		<path d="M5813 3193 c-23 -8 -65 -34 -91 -58 -153 -138 -121 -376 63 -473 42
-22 63 -27 130 -27 70 0 87 4 134 30 108 60 157 152 149 279 -7 112 -60 189
-163 238 -69 32 -151 37 -222 11z" />
		<path d="M3047 2036 c-119 -43 -197 -150 -197 -272 0 -210 225 -352 413 -261
185 91 219 334 65 472 -77 69 -189 93 -281 61z" />
		<path d="M4194 2034 c-54 -19 -118 -75 -151 -131 -21 -36 -27 -63 -31 -124 -4
-74 -2 -84 27 -144 38 -76 97 -127 174 -150 76 -22 1588 -22 1664 0 118 35
203 148 203 270 0 90 -24 151 -84 211 -90 89 -35 84 -955 83 -680 0 -812 -3
-847 -15z" />
		<path d="M3134 874 c-54 -19 -118 -75 -151 -131 -40 -68 -45 -181 -11 -254 31
-68 78 -116 143 -145 48 -22 63 -23 360 -26 l310 -3 57 28 c106 52 163 144
162 262 0 85 -25 146 -81 202 -78 78 -79 78 -433 80 -257 1 -323 -1 -356 -13z" />
	</g>
</svg>
